<svg id="zenkit" xmlns="http://www.w3.org/2000/svg" xmlns:xlink="http://www.w3.org/1999/xlink" width="1094" height="2036" viewBox="0 0 1094 2036"><defs><linearGradient id="Unbenannter_Verlauf_12" x1="1240.62673" y1="486.99722" x2="1239.84234" y2="22.52978" gradientUnits="userSpaceOnUse"><stop offset="0" stop-color="#c8ecf6"/><stop offset="0.0763" stop-color="#cbedf4"/><stop offset="0.88383" stop-color="#e3fae5"/></linearGradient><linearGradient id="Unbenannter_Verlauf_3" x1="694.67598" y1="922.32362" x2="1504.49965" y2="568.18132" gradientUnits="userSpaceOnUse"><stop offset="0" stop-color="#fed596"/><stop offset="0" stop-color="#fdd9a5"/><stop offset="0" stop-color="#f7ece3"/><stop offset="0" stop-color="#f5f3fc"/><stop offset="0.88383" stop-color="#f3f4fd"/></linearGradient><linearGradient id="Unbenannter_Verlauf_55" x1="1008.47578" y1="503.21615" x2="1419.1616" y2="323.61998" gradientUnits="userSpaceOnUse"><stop offset="0" stop-color="#c9ebf6"/><stop offset="0.88383" stop-color="#c8dcf6"/></linearGradient></defs><path d="M977.445,1911.05768a120.79773,120.79773,0,0,1,161.53708-170.75195l120.21162,69.56468a120.77913,120.77913,0,1,1-120.98769,209.075l-120.21161-69.56468A120.28825,120.28825,0,0,1,977.445,1911.05768Z" fill="#fbf4fb"/><path d="M640.23589,438.06133A60.12123,60.12123,0,0,1,614.78056,323.8775l62.17058-30.21762a60.112,60.112,0,0,1,52.55551,108.12823l-62.17058,30.21762A59.86762,59.86762,0,0,1,640.23589,438.06133Z" fill="#eefcf3"/><path d="M304.88064,1289.97644c163.323,0,295.7226,132.3997,295.7226,295.7227,0,163.3229-132.3996,295.7226-295.7226,295.7226-163.3231,0-295.7227-132.3997-295.7227-295.7226C9.15794,1422.37614,141.55754,1289.97644,304.88064,1289.97644Z" fill="#f4fcff" fill-rule="evenodd"/><path d="M566.43439,1272.78658a152.04369,152.04369,0,0,1,74.93589,286.20666l-154.3141,82.141a152.02028,152.02028,0,1,1-142.86235-268.38594l154.3141-82.141A151.40245,151.40245,0,0,1,566.43439,1272.78658Z" fill="#ecf9ff"/><path d="M304.88064,1289.97644c163.323,0,295.7226,132.3997,295.7226,295.7227,0,163.3229-132.3996,295.7226-295.7226,295.7226-163.3231,0-295.7227-132.3997-295.7227-295.7226C9.15794,1422.37614,141.55754,1289.97644,304.88064,1289.97644Z" fill="#f4fcff" fill-rule="evenodd"/><path d="M566.43439,1272.78658a152.04369,152.04369,0,0,1,74.93589,286.20666l-154.3141,82.141a152.02028,152.02028,0,1,1-142.86235-268.38594l154.3141-82.141A151.40245,151.40245,0,0,1,566.43439,1272.78658Z" fill="#ecf9ff"/><path d="M304.88064,1289.97644c163.323,0,295.7226,132.3997,295.7226,295.7227,0,163.3229-132.3996,295.7226-295.7226,295.7226-163.3231,0-295.7227-132.3997-295.7227-295.7226C9.15794,1422.37614,141.55754,1289.97644,304.88064,1289.97644Z" fill="#f4fcff" fill-rule="evenodd"/><path d="M566.43439,1272.78658a152.04369,152.04369,0,0,1,74.93589,286.20666l-154.3141,82.141a152.02028,152.02028,0,1,1-142.86235-268.38594l154.3141-82.141A151.40245,151.40245,0,0,1,566.43439,1272.78658Z" fill="#ecf9ff"/><path d="M439.20178,1322.17585,344.194,1372.74836a152.02023,152.02023,0,1,0,142.8623,268.38586l113.48389-60.40734C598.67786,1467.87483,533.62024,1370.39851,439.20178,1322.17585Z" fill="#e2f6ff"/><path d="M1021.94264,150.71489l185.7383-107.23621a65.30868,65.30868,0,0,1,65.30866,0l185.73843,107.236a65.30867,65.30867,0,0,1,32.65437,56.55894l.00013,214.47219a65.30866,65.30866,0,0,1-32.6543,56.559l-185.7383,107.23621a65.30865,65.30865,0,0,1-65.30866,0L1021.94284,478.305a65.30866,65.30866,0,0,1-32.65436-56.55894l-.00013-214.47219A65.30865,65.30865,0,0,1,1021.94264,150.71489Z" fill-rule="evenodd" fill="url(#Unbenannter_Verlauf_12)"/><path d="M1226.93847,1144.423a275.12228,275.12228,0,0,1-135.14231-35.80938v-.00219L781.5975,934.18507C694.75636,885.3527,642.23638,796.72483,641.106,697.10435S690.46951,507.68605,776.178,456.89574l306.15545-181.42626c85.71291-50.78812,188.72467-51.96025,275.56581-3.13009,86.83894,48.83237,139.35892,137.46024,140.49155,237.08072l4.041,355.85265c1.13043,99.62048-49.36356,189.41829-135.07207,240.20861C1323.58471,1131.422,1275.28134,1144.423,1226.93847,1144.423Zm-24.97482-231.72929c22.242,12.50716,41.37812,5.00462,50.80788-.57728,9.42536-5.5863,25.19431-18.76733,24.90457-44.29309l-4.041-355.85265c-.28975-25.52137-16.35282-38.34022-25.90331-43.71141-9.55487-5.37118-28.85339-12.43692-50.81006.57729L890.76627,650.26286c-21.95887,13.012-25.02969,33.3356-24.90677,44.29089.12512,10.95529,3.65688,31.202,25.90549,43.7136Z" fill="url(#Unbenannter_Verlauf_3)"/><path d="M1458.72811,478.30469,1274.461,584.69165l-.82568-72.72095c-.29-25.52136-16.353-38.34021-25.90332-43.71142-9.55518-5.37116-28.85352-12.43689-50.81055.57727l-94.44238,55.96612L1021.943,478.305a65.30869,65.30869,0,0,1-32.6543-56.559V330.60748l93.04492-55.138c85.71289-50.78814,188.72461-51.96026,275.56543-3.13012,65.91406,37.06549,112.04688,97.06158,130.95215,167.38641A65.30336,65.30336,0,0,1,1458.72811,478.30469Z" fill="url(#Unbenannter_Verlauf_55)"/></svg>