<svg id="zenkit" xmlns="http://www.w3.org/2000/svg" xmlns:xlink="http://www.w3.org/1999/xlink" width="1064" height="1342" viewBox="0 0 1064 1342"><defs><linearGradient id="Unbenannter_Verlauf_71" x1="657.83326" y1="335.76398" x2="877.5421" y2="915.52799" gradientTransform="translate(229.32856 -209.94272) rotate(18.57671)" gradientUnits="userSpaceOnUse"><stop offset="0" stop-color="#fff9fb"/><stop offset="0.88383" stop-color="#fffaf8"/></linearGradient><linearGradient id="Unbenannter_Verlauf_74" x1="-106.45952" y1="368.87785" x2="76.7921" y2="868.02375" gradientUnits="userSpaceOnUse"><stop offset="0" stop-color="#fde5f1"/><stop offset="0.44428" stop-color="#fee7ed"/><stop offset="0.60608" stop-color="#fee9ea"/><stop offset="1" stop-color="#ffe9e4"/></linearGradient><linearGradient id="Unbenannter_Verlauf_76" x1="82.43111" y1="673.56168" x2="40.71949" y2="512.00835" gradientUnits="userSpaceOnUse"><stop offset="0" stop-color="#fee2e2"/><stop offset="0.73146" stop-color="#fde0e6"/><stop offset="0.99783" stop-color="#fddfe9"/></linearGradient><linearGradient id="Unbenannter_Verlauf_79" x1="162.07614" y1="639.26157" x2="264.73609" y2="405.88038" gradientUnits="userSpaceOnUse"><stop offset="0" stop-color="#fff8f6"/><stop offset="0.94525" stop-color="#fef5fa"/><stop offset="1" stop-color="#fef5fa"/></linearGradient></defs><path d="M92.15118-18.06561c35.69574,85.56567,113.16449,151.51086,211.33362,168.1214l325.50836,55.077c150.23255,25.41986,292.71015-74.19555,321.01709-223.19842Z" fill="#fef8fb" fill-rule="evenodd"/><rect x="498.29231" y="337.92334" width="516.42383" height="516.42383" rx="113.02995" transform="translate(-150.4978 272.0624) rotate(-18.57671)" fill="url(#Unbenannter_Verlauf_71)"/><path d="M303.95238,1326.86958a75.28384,75.28384,0,0,1-31.87517-142.98105l77.85-37.83852a75.27224,75.27224,0,1,1,65.81,135.39823l-77.85,37.83852A74.96649,74.96649,0,0,1,303.95238,1326.86958Z" fill="#fff4f1"/><path d="M-23.54909,390.21721V706.31474a189.64759,189.64759,0,0,1,7.618,53.33686,189.64788,189.64788,0,0,1-7.618,53.33685v316.09747C112.568,1061.90343,206.20073,921.714,206.20073,759.6516S112.568,457.39976-23.54909,390.21721Z" fill-rule="evenodd" fill="url(#Unbenannter_Verlauf_74)"/><path d="M87.2849,470.20671a318.12733,318.12733,0,0,1-110.834,41.23175V706.36235a188.41721,188.41721,0,0,1,5.11274,22.479A532.76274,532.76274,0,0,0,193.649,658.39043,411.15756,411.15756,0,0,0,87.2849,470.20671Z" fill-rule="evenodd" fill="url(#Unbenannter_Verlauf_76)"/><path d="M303.4848,150.05577a279.79745,279.79745,0,0,1-68.122-20.66589,321.36842,321.36842,0,0,1,6.93378,66.51336c0,115.91547-61.61468,217.42591-153.87469,273.59937l-1.137.7041A411.15735,411.15735,0,0,1,193.64838,658.38823C352.05133,565.20561,458.36847,392.973,458.36847,195.9033q0-9.89346-.35663-19.701Z" fill-rule="evenodd" fill="url(#Unbenannter_Verlauf_79)"/><path d="M160.24567-18.06561a319.12494,319.12494,0,0,1,75.11712,147.45544,279.797,279.797,0,0,0,68.122,20.6659l154.527,26.14648A533.63808,533.63808,0,0,0,413.9472-18.06561Z" fill="#fdeef7" fill-rule="evenodd"/></svg>